<?xml version="1.0" standalone="no"?>
<!DOCTYPE svg PUBLIC "-//W3C//DTD SVG 20010904//EN"
 "http://www.w3.org/TR/2001/REC-SVG-20010904/DTD/svg10.dtd">
<svg version="1.0" xmlns="http://www.w3.org/2000/svg"
 width="512.000000pt" height="512.000000pt" viewBox="0 0 512.000000 512.000000"
 preserveAspectRatio="xMidYMid meet">

<g transform="translate(0.000000,512.000000) scale(0.100000,-0.100000)"
fill="#EAB308" stroke="none">
<path d="M3535 5034 c-338 -51 -593 -174 -814 -394 -136 -135 -237 -288 -308
-467 -20 -51 -39 -92 -42 -91 -3 2 -53 27 -111 55 -129 65 -232 92 -375 100
-185 9 -364 -34 -531 -128 -113 -63 -282 -234 -346 -348 -41 -73 -96 -222
-112 -302 -5 -23 -12 -27 -53 -33 -26 -3 -84 -24 -129 -46 -339 -164 -419
-621 -154 -888 70 -70 123 -104 219 -140 59 -23 85 -26 244 -30 l177 -4 0
-159 0 -159 -240 0 -240 0 0 -240 0 -240 -216 0 c-141 0 -231 -4 -258 -12 -55
-16 -138 -99 -154 -154 -17 -58 -17 -730 0 -788 16 -55 99 -138 154 -154 23
-7 85 -12 138 -12 l96 0 0 -80 0 -80 -80 0 -80 0 0 -80 0 -80 480 0 480 0 0
80 0 80 -80 0 -80 0 0 80 0 80 96 0 c128 0 168 13 229 75 70 70 75 92 75 349
l0 216 160 0 160 0 0 -216 c0 -257 5 -279 75 -349 61 -62 101 -75 229 -75 l96
0 0 -80 0 -80 -80 0 -80 0 0 -80 0 -80 480 0 480 0 0 80 0 80 -80 0 -80 0 0
80 0 80 96 0 c128 0 168 13 229 75 70 70 75 92 75 349 l0 216 160 0 160 0 0
-216 c0 -257 5 -279 75 -349 61 -62 101 -75 229 -75 l96 0 0 -80 0 -80 -80 0
-80 0 0 -80 0 -80 480 0 480 0 0 80 0 80 -80 0 -80 0 0 80 0 80 96 0 c53 0
115 5 138 12 55 16 138 99 154 154 17 57 17 730 0 786 -6 22 -31 62 -55 88
-66 74 -94 80 -355 80 l-218 0 0 240 0 240 -240 0 -240 0 2 171 3 171 91 23
c506 128 897 543 1001 1063 24 120 24 384 0 504 -21 103 -76 266 -119 352
-190 378 -549 651 -960 731 -80 16 -342 28 -403 19z m240 -175 c67 -25 159
-106 217 -192 38 -56 108 -195 123 -244 l6 -23 -441 0 -441 0 6 23 c15 49 85
188 123 244 56 83 150 167 214 192 68 26 124 26 193 0z m-515 -63 c0 -2 -16
-28 -36 -57 -42 -61 -113 -208 -138 -286 l-18 -53 -175 0 -175 0 52 60 c106
123 238 224 384 296 84 41 106 50 106 40z m927 -31 c121 -56 240 -141 346
-247 53 -53 97 -102 97 -108 0 -6 -60 -10 -169 -10 l-169 0 -17 53 c-25 74
-97 222 -139 286 -20 29 -36 55 -36 57 0 8 12 3 87 -31z m-1170 -547 c-21 -85
-55 -355 -57 -450 0 -5 -65 -8 -145 -8 l-145 0 -24 38 c-13 22 -48 67 -77 102
l-53 64 16 60 c9 34 32 96 52 139 l35 77 202 0 201 0 -5 -22z m1170 -38 c14
-62 39 -239 48 -347 l6 -73 -561 0 -562 0 7 78 c11 140 48 371 62 395 2 4 226
6 496 5 l492 -3 12 -55z m576 13 c48 -95 91 -244 105 -360 l8 -73 -236 0 -237
0 -7 38 c-3 20 -6 57 -6 82 0 45 -32 280 -45 333 l-7 27 201 0 201 0 23 -47z
m-2781 -127 c371 -72 631 -369 655 -748 3 -54 7 -98 8 -98 2 0 34 12 71 27 57
22 85 27 164 27 87 1 101 -2 162 -31 93 -44 151 -100 196 -191 35 -72 37 -81
37 -171 0 -87 -3 -102 -32 -163 -44 -93 -100 -151 -191 -196 l-76 -37 -1056 0
-1056 0 -76 37 c-91 45 -147 103 -191 196 -29 61 -32 76 -32 162 0 86 3 101
32 162 43 92 101 151 189 194 62 31 86 37 162 42 l90 5 6 66 c22 219 127 419
289 551 100 82 267 156 392 173 69 9 188 6 257 -7z m982 -503 c3 -21 6 -58 6
-83 l0 -45 -92 1 -92 2 -17 73 c-10 41 -18 77 -19 82 0 4 47 7 104 7 l103 0 7
-37z m1271 -40 c-8 -101 -32 -273 -48 -343 l-12 -55 -395 -2 -395 -3 -30 51
c-35 61 -130 158 -179 184 -33 18 -35 22 -41 84 -3 37 -8 87 -11 114 l-5 47
562 0 561 0 -7 -77z m633 5 c-14 -117 -57 -266 -105 -360 l-23 -48 -201 0
-201 0 7 28 c13 52 45 287 45 332 0 25 3 62 6 83 l7 37 237 0 236 0 -8 -72z
m-753 -590 c-15 -50 -85 -189 -123 -245 -59 -86 -150 -167 -219 -193 -51 -20
-70 -22 -163 -16 -85 5 -274 37 -286 49 -1 1 13 27 31 56 55 86 79 171 79 278
l1 93 343 0 343 0 -6 -22z m515 12 c0 -22 -201 -209 -281 -263 -84 -56 -236
-133 -245 -124 -3 2 12 28 32 58 42 64 114 212 139 287 l17 52 169 0 c104 0
169 -4 169 -10z m-1360 -564 c120 -39 226 -57 363 -63 l127 -6 0 -239 0 -238
240 0 240 0 0 -160 0 -160 -216 0 c-257 0 -279 -5 -349 -75 -57 -56 -75 -102
-75 -189 l0 -56 -160 0 -160 0 0 56 c0 81 -18 129 -67 184 -66 74 -94 80 -355
80 l-218 0 0 399 0 399 178 4 c185 5 228 14 328 66 21 12 41 21 44 21 3 1 39
-10 80 -23z m-790 -466 l0 -400 -216 0 c-257 0 -279 -5 -349 -75 -57 -56 -75
-102 -75 -189 l0 -56 -160 0 -160 0 0 56 c0 81 -18 129 -67 184 -66 74 -94 80
-355 80 l-218 0 0 160 0 160 240 0 240 0 0 240 0 240 560 0 560 0 0 -400z
m-1145 -585 c25 -24 25 -24 25 -240 l0 -215 -560 0 -560 0 0 215 c0 216 0 216
25 240 l24 25 511 0 511 0 24 -25z m1760 0 c25 -24 25 -24 25 -240 l0 -215
-560 0 -560 0 0 215 c0 216 0 216 25 240 l24 25 511 0 511 0 24 -25z m1760 0
c25 -24 25 -24 25 -240 l0 -215 -560 0 -560 0 0 215 c0 216 0 216 25 240 l24
25 511 0 511 0 24 -25z m-3495 -670 c0 -46 -4 -60 -25 -80 l-24 -25 -511 0
-511 0 -24 25 c-21 20 -25 34 -25 80 l0 55 560 0 560 0 0 -55z m1760 0 c0 -46
-4 -60 -25 -80 l-24 -25 -511 0 -511 0 -24 25 c-21 20 -25 34 -25 80 l0 55
560 0 560 0 0 -55z m1760 0 c0 -46 -4 -60 -25 -80 l-24 -25 -511 0 -511 0 -24
25 c-21 20 -25 34 -25 80 l0 55 560 0 560 0 0 -55z m-3920 -345 l0 -80 -160 0
-160 0 0 80 0 80 160 0 160 0 0 -80z m1760 0 l0 -80 -160 0 -160 0 0 80 0 80
160 0 160 0 0 -80z m1760 0 l0 -80 -160 0 -160 0 0 80 0 80 160 0 160 0 0 -80z"/>
<path d="M1840 3842 l0 -78 71 -11 c154 -24 296 -130 360 -268 17 -36 33 -65
36 -65 3 0 37 9 74 20 43 13 69 26 69 35 0 27 -80 167 -125 221 -55 64 -150
134 -230 169 -60 27 -176 55 -226 55 l-29 0 0 -78z"/>
<path d="M1200 3107 c-19 -6 -58 -34 -85 -62 -71 -70 -91 -145 -63 -239 16
-55 99 -138 154 -154 94 -28 169 -8 239 63 98 97 101 222 8 325 -65 72 -158
97 -253 67z m135 -172 c50 -49 15 -135 -55 -135 -41 0 -80 39 -80 80 0 41 39
80 80 80 19 0 40 -9 55 -25z"/>
<path d="M1840 3107 c-49 -16 -133 -102 -148 -153 -28 -94 -8 -169 63 -239 51
-52 102 -75 165 -75 63 0 114 23 165 75 98 97 101 222 8 325 -65 72 -158 97
-253 67z m135 -172 c50 -49 15 -135 -55 -135 -41 0 -80 39 -80 80 0 41 39 80
80 80 19 0 40 -9 55 -25z"/>
<path d="M2480 3107 c-49 -16 -133 -102 -148 -153 -28 -94 -8 -169 63 -239 51
-52 102 -75 165 -75 63 0 114 23 165 75 98 97 101 222 8 325 -65 72 -158 97
-253 67z m135 -172 c16 -15 25 -36 25 -55 0 -19 -9 -40 -25 -55 -49 -50 -135
-15 -135 55 0 41 39 80 80 80 19 0 40 -9 55 -25z"/>
</g>
</svg>
