<?xml version="1.0" standalone="no"?>
<!DOCTYPE svg PUBLIC "-//W3C//DTD SVG 20010904//EN"
 "http://www.w3.org/TR/2001/REC-SVG-20010904/DTD/svg10.dtd">
<svg version="1.0" xmlns="http://www.w3.org/2000/svg"
 width="512.000000pt" height="512.000000pt" viewBox="0 0 512.000000 512.000000"
 preserveAspectRatio="xMidYMid meet">

<g transform="translate(0.000000,512.000000) scale(0.100000,-0.100000)"
fill="#EAB308" stroke="none">
<path d="M525 5028 c-27 -5 -86 -27 -131 -48 -189 -91 -314 -292 -314 -506 0
-119 42 -265 108 -372 53 -87 401 -491 429 -498 13 -4 33 -4 46 0 28 7 376
411 429 498 47 77 76 152 94 246 27 143 14 253 -46 378 -109 227 -360 350
-615 302z m279 -186 c91 -42 149 -100 194 -190 35 -72 37 -81 37 -171 0 -180
-39 -260 -240 -496 -79 -94 -149 -170 -155 -170 -6 0 -76 77 -156 170 -102
120 -156 193 -183 247 -118 232 -54 489 148 596 78 42 122 52 213 48 61 -3 92
-11 142 -34z"/>
<path d="M560 4707 c-19 -6 -58 -34 -85 -62 -71 -70 -91 -145 -63 -239 16 -55
99 -138 154 -154 94 -28 169 -8 239 63 98 97 101 222 8 325 -65 72 -158 97
-253 67z m135 -172 c50 -49 15 -135 -55 -135 -41 0 -80 39 -80 80 0 41 39 80
80 80 19 0 40 -9 55 -25z"/>
<path d="M3600 4520 l0 -519 -937 -4 c-908 -3 -941 -4 -1034 -24 -319 -70
-588 -219 -804 -444 -204 -212 -334 -461 -397 -759 -17 -81 -21 -145 -25 -432
l-5 -338 -159 0 -159 0 0 -80 0 -80 160 0 160 0 0 -400 0 -400 -160 0 -160 0
0 -80 0 -80 160 0 160 0 0 -400 0 -400 80 0 80 0 0 1238 c0 788 4 1268 10
1322 71 580 488 1035 1075 1173 88 20 115 21 1023 24 l932 4 0 -161 0 -160
-40 0 -40 0 0 -80 0 -80 40 0 40 0 0 -160 0 -159 -827 -3 -828 -3 -80 -27
c-116 -40 -199 -92 -290 -183 -91 -91 -143 -174 -183 -290 l-27 -80 -3 -1187
-3 -1188 81 0 80 0 0 400 0 399 938 4 c907 3 940 4 1033 24 117 26 248 69 353
117 43 20 80 36 81 36 1 0 0 -33 -3 -72 -8 -130 33 -286 106 -406 53 -87 401
-491 429 -498 13 -4 33 -4 46 0 28 7 376 411 429 498 47 77 76 152 94 246 27
143 14 253 -46 378 -90 188 -269 300 -503 316 l-37 3 35 52 c53 79 131 241
166 344 63 189 71 251 76 622 l5 337 159 0 159 0 0 80 0 80 -160 0 -160 0 0
400 0 400 160 0 160 0 0 80 0 80 -160 0 -160 0 0 520 0 520 -80 0 -79 0 -4
-1412 c-3 -1398 -3 -1414 -24 -1503 -72 -308 -228 -571 -447 -755 -184 -154
-371 -247 -611 -303 -87 -20 -117 -21 -1022 -24 l-933 -4 0 161 0 160 120 0
120 0 0 80 0 80 -120 0 -120 0 0 160 0 159 828 3 827 3 80 27 c116 40 199 92
290 183 91 91 143 174 183 290 l27 80 3 1308 3 1307 -81 0 -80 0 0 -520z m-2
-1857 c-4 -203 -6 -223 -29 -284 -36 -95 -70 -148 -135 -213 -65 -65 -117 -98
-213 -135 l-66 -26 -817 -3 -818 -3 0 184 c0 219 9 276 60 383 53 109 141 198
253 253 45 22 105 44 132 49 28 6 401 10 843 11 l794 1 -4 -217z m1046 -1341
c91 -42 149 -100 194 -190 35 -72 37 -81 37 -171 0 -180 -39 -260 -240 -496
-79 -94 -149 -170 -155 -170 -6 0 -76 77 -156 170 -102 120 -156 193 -183 247
-118 232 -54 489 148 596 78 42 122 52 213 48 61 -3 92 -11 142 -34z"/>
<path d="M4400 1187 c-49 -16 -133 -102 -148 -153 -28 -94 -8 -169 63 -239
101 -102 229 -102 330 0 98 97 101 222 8 325 -65 72 -158 97 -253 67z m135
-172 c50 -49 15 -135 -55 -135 -41 0 -80 39 -80 80 0 41 39 80 80 80 19 0 40
-9 55 -25z"/>
<path d="M4080 4985 l0 -55 80 0 80 0 0 55 0 55 -80 0 -80 0 0 -55z"/>
<path d="M4080 4450 l0 -160 80 0 80 0 0 160 0 160 -80 0 -80 0 0 -160z"/>
<path d="M4080 3810 l0 -160 80 0 80 0 0 160 0 160 -80 0 -80 0 0 -160z"/>
<path d="M1825 3505 c-92 -14 -195 -43 -195 -54 0 -8 41 -134 46 -139 1 -2 40
5 86 16 46 11 109 23 141 27 l57 6 0 64 c0 105 4 102 -135 80z"/>
<path d="M2270 3440 l0 -80 155 0 155 0 0 80 0 80 -155 0 -155 0 0 -80z"/>
<path d="M2890 3440 l0 -80 160 0 160 0 0 80 0 80 -160 0 -160 0 0 -80z"/>
<path d="M4080 3170 l0 -160 80 0 80 0 0 160 0 160 -80 0 -80 0 0 -160z"/>
<path d="M1252 3234 c-61 -55 -152 -158 -152 -173 0 -5 27 -27 59 -50 l60 -42
100 102 c64 64 98 106 93 113 -26 44 -77 106 -86 106 -6 0 -39 -25 -74 -56z"/>
<path d="M931 2737 c-15 -38 -39 -164 -47 -239 l-7 -68 80 0 81 0 7 67 c4 37
15 99 25 138 10 38 15 73 12 76 -4 4 -32 15 -62 24 -30 10 -61 20 -67 22 -7 3
-17 -6 -22 -20z"/>
<path d="M4080 2531 l0 -158 71 -7 c55 -6 74 -4 80 6 5 7 9 82 9 166 l0 152
-80 0 -80 0 0 -159z"/>
<path d="M880 1960 l0 -160 80 0 80 0 0 160 0 160 -80 0 -80 0 0 -160z"/>
<path d="M3967 2031 c-16 -31 -50 -86 -78 -122 l-49 -64 57 -52 57 -52 24 22
c44 41 171 251 160 263 -5 4 -136 64 -140 63 -2 0 -16 -26 -31 -58z"/>
<path d="M3530 1615 c-36 -19 -93 -42 -128 -52 -54 -16 -62 -21 -58 -38 3 -11
11 -46 18 -77 7 -32 16 -58 21 -58 32 0 279 101 306 126 7 6 -73 134 -84 133
-5 -1 -39 -16 -75 -34z"/>
<path d="M2080 1440 l0 -80 160 0 160 0 0 80 0 80 -160 0 -160 0 0 -80z"/>
<path d="M2720 1440 l0 -80 160 0 160 0 0 80 0 80 -160 0 -160 0 0 -80z"/>
<path d="M880 1335 l0 -155 80 0 80 0 0 155 0 155 -80 0 -80 0 0 -155z"/>
<path d="M880 710 l0 -160 80 0 80 0 0 160 0 160 -80 0 -80 0 0 -160z"/>
<path d="M880 160 l0 -80 80 0 80 0 0 80 0 80 -80 0 -80 0 0 -80z"/>
</g>
</svg>
