<?xml version="1.0" standalone="no"?>
<!DOCTYPE svg PUBLIC "-//W3C//DTD SVG 20010904//EN"
 "http://www.w3.org/TR/2001/REC-SVG-20010904/DTD/svg10.dtd">
<svg version="1.0" xmlns="http://www.w3.org/2000/svg"
 width="512.000000pt" height="512.000000pt" viewBox="0 0 512.000000 512.000000"
 preserveAspectRatio="xMidYMid meet">

<g transform="translate(0.000000,512.000000) scale(0.100000,-0.100000)"
fill="#EAB308" stroke="none">
<path d="M140 5104 c-45 -20 -77 -50 -101 -96 -18 -35 -19 -64 -19 -451 l0
-414 23 -44 c74 -139 290 -139 364 0 22 43 23 50 23 323 l0 278 276 0 c315 0
338 4 401 66 104 105 74 272 -62 335 -37 17 -72 19 -455 18 -348 0 -421 -2
-450 -15z m860 -154 c11 -11 20 -29 20 -40 0 -11 -9 -29 -20 -40 -19 -19 -33
-20 -344 -20 -304 0 -325 -1 -347 -19 l-24 -19 -3 -318 c-2 -276 -5 -321 -19
-336 -20 -22 -51 -23 -75 -1 -17 15 -18 41 -18 404 0 359 1 389 18 398 11 7
160 11 405 11 374 0 388 -1 407 -20z"/>
<path d="M4075 5101 c-141 -65 -167 -252 -49 -350 58 -47 89 -51 388 -51 l276
0 0 -278 c0 -273 1 -280 23 -323 74 -139 290 -139 364 0 l23 44 0 414 c0 387
-1 416 -19 451 -24 47 -56 77 -103 97 -32 13 -100 15 -450 15 -381 0 -416 -2
-453 -19z m856 -141 c18 -10 19 -25 19 -397 0 -346 -2 -388 -17 -405 -21 -23
-55 -23 -76 0 -14 15 -17 60 -19 336 l-3 318 -24 19 c-22 18 -43 19 -347 19
-311 0 -325 1 -344 20 -11 11 -20 29 -20 40 0 11 9 29 20 40 19 19 33 20 406
20 246 0 392 -4 405 -10z"/>
<path d="M2509 4251 l-24 -19 -3 -465 -3 -464 -57 9 c-80 12 -179 43 -280 87
-118 52 -180 65 -292 64 -107 -1 -217 -31 -307 -83 -73 -42 -166 -131 -211
-203 -71 -114 -144 -312 -174 -473 l-11 -64 -359 0 -358 0 0 115 c0 94 -4 123
-19 153 -38 73 -102 112 -186 112 -84 0 -148 -39 -186 -112 -17 -34 -19 -62
-19 -343 0 -281 2 -309 19 -343 51 -100 172 -141 276 -93 89 41 115 98 115
251 l0 110 348 0 347 0 2 -158 c2 -187 25 -337 79 -504 49 -153 110 -278 244
-503 98 -165 124 -201 199 -275 149 -146 291 -210 487 -218 137 -5 222 8 337
55 l87 35 88 -35 c114 -47 199 -60 336 -55 196 8 339 72 486 218 75 73 102
111 200 275 124 207 182 323 228 456 37 105 78 289 88 387 6 67 5 75 -16 97
-30 32 -73 33 -103 3 -18 -18 -26 -43 -36 -120 -33 -257 -98 -422 -294 -753
-123 -207 -200 -291 -317 -349 -102 -50 -168 -66 -275 -66 -108 0 -180 17
-297 71 l-88 40 -87 -40 c-118 -54 -190 -71 -298 -71 -106 0 -173 16 -274 66
-119 59 -196 144 -320 353 -169 283 -226 414 -271 619 -26 114 -45 342 -36
415 l7 57 1705 0 1704 0 0 -115 c0 -125 12 -166 62 -211 82 -76 222 -72 294 8
53 57 54 65 54 393 0 281 -2 309 -19 343 -38 73 -102 112 -186 112 -84 0 -148
-39 -186 -112 -15 -30 -19 -59 -19 -153 l0 -115 -358 0 -359 0 -11 64 c-30
161 -103 359 -174 473 -109 174 -308 283 -518 286 -112 1 -174 -12 -292 -64
-102 -45 -200 -75 -280 -87 l-58 -9 0 82 0 82 58 7 c140 17 268 70 378 156 75
61 133 134 176 225 30 65 33 78 33 170 0 87 -3 107 -25 150 -33 65 -76 87
-187 93 -142 8 -245 -32 -358 -139 l-72 -69 -6 87 c-4 74 -8 90 -27 105 -29
23 -72 23 -101 -1z m611 -141 c11 -7 15 -28 15 -82 0 -99 -32 -164 -123 -250
-82 -76 -146 -112 -248 -138 -113 -29 -124 -28 -124 16 0 172 152 394 309 450
42 15 149 18 171 4z m-1072 -846 c377 -107 512 -128 670 -105 87 13 219 54
291 91 159 81 309 86 456 16 160 -76 239 -193 319 -469 14 -46 28 -101 31
-121 l7 -36 -1262 0 -1262 0 7 36 c11 60 53 200 86 284 85 220 214 323 452
359 4 0 96 -24 205 -55z m-1780 -406 c17 -17 17 -569 0 -586 -16 -16 -70 -16
-86 0 -17 17 -17 569 0 586 7 7 26 12 43 12 17 0 36 -5 43 -12z m4670 0 c17
-17 17 -569 0 -586 -16 -16 -70 -16 -86 0 -17 17 -17 569 0 586 7 7 26 12 43
12 17 0 36 -5 43 -12z"/>
<path d="M132 1134 c-35 -17 -63 -41 -80 -67 l-27 -41 -3 -438 c-2 -416 -2
-439 17 -475 24 -48 56 -78 103 -98 32 -13 100 -15 450 -15 381 0 416 2 453
19 136 63 166 230 62 335 -63 62 -86 66 -401 66 l-276 0 0 293 c0 288 0 295
-23 338 -31 58 -99 101 -170 106 -42 4 -62 -1 -105 -23z m131 -142 c14 -15 17
-61 19 -351 l3 -333 24 -19 c22 -18 43 -19 347 -19 311 0 325 -1 344 -20 25
-25 25 -55 0 -80 -19 -19 -33 -20 -406 -20 -246 0 -392 4 -405 10 -18 10 -19
25 -19 412 0 360 2 403 17 420 21 23 55 23 76 0z"/>
<path d="M4802 1134 c-35 -17 -63 -41 -80 -67 l-27 -40 -3 -304 -3 -303 -276
0 c-300 0 -329 -4 -389 -53 -119 -98 -87 -291 58 -351 56 -24 840 -24 896 -1
47 20 79 50 103 97 18 35 19 64 19 466 l0 429 -23 44 c-31 58 -99 101 -170
106 -42 4 -62 -1 -105 -23z m130 -141 c17 -15 18 -41 18 -419 0 -388 -1 -404
-19 -414 -13 -6 -159 -10 -405 -10 -373 0 -387 1 -406 20 -11 11 -20 29 -20
40 0 11 9 29 20 40 19 19 33 20 344 20 304 0 325 1 347 19 l24 19 3 333 c2
290 5 336 19 351 20 22 51 23 75 1z"/>
</g>
</svg>
