<?xml version="1.0" standalone="no"?>
<!DOCTYPE svg PUBLIC "-//W3C//DTD SVG 20010904//EN"
 "http://www.w3.org/TR/2001/REC-SVG-20010904/DTD/svg10.dtd">
<svg version="1.0" xmlns="http://www.w3.org/2000/svg"
 width="512.000000pt" height="512.000000pt" viewBox="0 0 512.000000 512.000000"
 preserveAspectRatio="xMidYMid meet">

<g transform="translate(0.000000,512.000000) scale(0.110000,-0.110000)"
fill="#EAB308" stroke="none">
<path d="M1262 4469 c-285 -49 -519 -263 -599 -549 -16 -56 -18 -105 -18 -363
l0 -299 33 -29 c52 -47 137 -32 160 28 7 17 13 135 15 298 3 243 6 276 25 336
54 163 189 298 352 351 58 19 95 21 345 26 304 5 312 6 335 62 17 40 5 91 -26
121 l-26 24 -271 2 c-150 0 -296 -3 -325 -8z"/>
<path d="M3054 4471 c-66 -28 -85 -121 -36 -171 l28 -28 285 -4 c273 -4 287
-5 355 -30 165 -58 274 -168 342 -342 13 -33 17 -101 21 -333 6 -276 7 -293
27 -320 47 -64 150 -50 181 24 13 32 14 79 10 308 -5 310 -12 347 -84 495 -39
80 -61 110 -137 186 -77 77 -106 98 -186 137 -156 77 -176 80 -500 84 -157 1
-295 -1 -306 -6z"/>
<path d="M1741 3381 l-31 -29 0 -255 0 -255 25 -30 c32 -38 72 -48 118 -28 63
26 67 45 67 317 l0 241 -34 34 c-46 46 -99 47 -145 5z"/>
<path d="M2381 3381 l-31 -29 0 -346 c0 -277 -3 -353 -14 -381 -15 -35 -59
-65 -96 -65 -37 0 -81 -30 -96 -65 -19 -46 -8 -90 29 -121 29 -24 37 -26 97
-22 111 8 207 74 257 176 l28 57 3 378 3 378 -35 35 c-46 46 -99 48 -145 5z"/>
<path d="M3021 3381 l-31 -29 0 -255 0 -255 25 -30 c32 -38 72 -48 118 -28 63
26 67 45 67 317 l0 241 -34 34 c-46 46 -99 47 -145 5z"/>
<path d="M674 2096 l-34 -34 0 -266 c0 -282 9 -361 51 -470 59 -150 203 -309
346 -384 146 -76 192 -84 497 -89 304 -6 335 -1 366 50 25 41 25 73 0 114 -13
21 -31 35 -57 42 -22 6 -144 11 -288 11 -176 0 -265 4 -300 14 -174 46 -321
185 -377 355 -19 59 -22 97 -27 354 l-6 289 -30 24 c-46 37 -98 33 -141 -10z"/>
<path d="M1857 2110 c-38 -30 -52 -80 -33 -123 32 -78 239 -210 396 -254 52
-14 101 -18 240 -18 170 1 178 2 270 33 102 34 186 80 276 152 64 51 84 84 84
135 0 75 -96 122 -160 78 -14 -9 -45 -34 -69 -55 -99 -86 -252 -138 -406 -138
-162 0 -304 51 -429 153 -78 64 -122 74 -169 37z"/>
<path d="M4101 2114 c-46 -33 -51 -65 -51 -337 0 -195 -4 -266 -15 -312 -46
-176 -186 -321 -364 -375 -56 -18 -93 -20 -315 -20 -141 0 -267 -5 -288 -10
-79 -22 -104 -111 -49 -172 l29 -33 251 -3 c276 -3 384 8 493 52 180 73 329
216 408 390 55 121 62 168 67 455 6 287 1 325 -44 360 -31 25 -89 27 -122 5z"/>
</g>
</svg>
