<?xml version="1.0" standalone="no"?>
<!DOCTYPE svg PUBLIC "-//W3C//DTD SVG 20010904//EN"
 "http://www.w3.org/TR/2001/REC-SVG-20010904/DTD/svg10.dtd">
<svg version="1.0" xmlns="http://www.w3.org/2000/svg"
 width="512.000000pt" height="512.000000pt" viewBox="0 0 512.000000 512.000000"
 preserveAspectRatio="xMidYMid meet">

<g transform="translate(0.000000,512.000000) scale(0.100000,-0.100000)"
fill="#EAB308" stroke="none">
<path d="M1948 4990 c-927 -41 -1608 -151 -1833 -295 -59 -38 -90 -70 -104
-108 -8 -19 -11 -296 -11 -863 l0 -835 25 -24 c31 -32 69 -32 100 0 l25 24 0
732 c0 693 1 731 18 724 111 -49 349 -112 565 -149 l37 -7 0 -1290 0 -1289
-22 4 c-13 3 -61 12 -108 21 -200 38 -371 92 -453 142 l-37 23 0 384 c0 373
-1 384 -21 410 -29 36 -80 36 -109 -1 -20 -26 -21 -33 -18 -434 3 -395 4 -408
24 -436 74 -100 294 -183 654 -247 173 -31 181 -31 211 -7 24 19 24 20 29 288
l5 268 55 7 c86 11 446 46 541 53 l85 7 38 -64 c65 -110 205 -274 338 -393
l50 -45 -17 -132 c-8 -73 -19 -136 -23 -139 -4 -4 -41 -17 -84 -29 l-76 -22
-41 32 c-67 54 -110 52 -331 -15 -102 -31 -213 -70 -247 -86 -177 -84 -322
-249 -387 -439 -14 -41 -46 -187 -71 -324 -40 -225 -43 -251 -30 -276 34 -65
124 -47 139 27 3 15 23 130 46 254 22 124 46 245 55 268 49 140 165 277 290
343 39 20 146 59 240 87 166 50 205 58 205 44 0 -31 32 -285 45 -358 48 -276
161 -621 224 -684 43 -43 121 -12 121 48 0 15 -16 63 -36 106 -77 167 -136
382 -174 639 -29 192 -31 182 38 202 31 9 60 18 64 20 3 3 14 -22 23 -53 23
-82 55 -132 125 -196 97 -90 240 -147 372 -147 70 0 98 21 98 73 0 49 -25 66
-111 77 -200 25 -330 126 -345 268 -5 42 20 299 29 309 2 2 37 -12 78 -32 209
-98 409 -98 618 0 41 20 76 34 78 32 2 -3 11 -62 19 -133 27 -227 15 -262
-140 -391 -36 -30 -36 -84 0 -112 15 -12 34 -21 43 -21 44 0 178 117 214 186
8 16 23 55 32 87 13 45 20 57 32 53 9 -4 36 -11 60 -18 25 -6 47 -17 50 -24 7
-19 -23 -233 -53 -384 -30 -145 -86 -323 -138 -435 -20 -43 -36 -91 -36 -106
0 -59 78 -91 120 -49 63 63 177 409 225 685 13 73 45 327 45 358 0 15 40 6
206 -44 93 -28 200 -67 239 -87 125 -66 241 -203 290 -343 9 -23 33 -144 55
-268 23 -124 43 -239 46 -254 15 -74 105 -92 139 -27 13 25 10 51 -30 276 -47
258 -76 362 -127 451 -71 126 -196 245 -322 307 -39 19 -154 60 -256 91 -220
67 -264 69 -330 16 l-40 -32 -85 26 c-47 14 -85 28 -85 31 0 3 -7 63 -16 133
l-15 128 116 114 c115 112 246 272 285 349 15 29 27 40 43 40 70 0 597 -53
655 -65 l22 -5 0 -261 0 -260 25 -24 c30 -31 29 -31 205 1 362 64 581 147 652
246 l23 33 3 1395 c2 966 0 1406 -8 1432 -20 71 -125 141 -297 197 -119 39
-378 93 -409 85 -30 -8 -58 -57 -50 -90 9 -36 40 -50 181 -79 165 -34 327 -86
388 -125 26 -16 47 -32 47 -35 0 -10 -76 -52 -140 -77 -86 -34 -273 -81 -440
-109 -107 -18 -140 -28 -157 -46 l-23 -22 0 -1054 0 -1053 -97 12 c-54 7 -179
20 -278 29 -99 10 -181 18 -182 19 0 0 6 25 15 53 l17 53 86 0 c98 0 142 12
182 49 53 48 60 75 65 228 8 258 -8 327 -87 380 -27 18 -48 23 -99 23 -57 0
-63 2 -57 18 45 118 54 396 17 534 -45 167 -104 283 -149 294 -34 9 -75 -13
-87 -48 -8 -22 -2 -42 28 -108 58 -128 78 -216 80 -355 0 -66 -3 -142 -7 -168
l-8 -49 -37 40 c-20 22 -57 50 -82 63 -45 24 -47 24 -445 29 l-400 5 -70 31
c-109 47 -190 107 -317 235 -64 65 -128 121 -143 125 -40 10 -89 -4 -117 -34
-14 -15 -39 -59 -56 -99 -36 -87 -107 -189 -159 -229 -31 -24 -51 -30 -114
-35 -86 -8 -141 -31 -194 -85 -20 -20 -38 -34 -40 -33 -8 10 -25 156 -25 221
0 162 73 347 183 465 113 120 238 155 375 104 72 -27 66 -29 172 63 114 100
258 171 410 202 112 22 313 15 420 -16 99 -28 219 -87 304 -149 38 -28 75 -51
82 -51 48 0 89 50 78 96 -13 51 -215 178 -364 229 -231 79 -500 73 -725 -14
-97 -37 -211 -103 -285 -166 -44 -36 -60 -44 -80 -39 -185 46 -347 -3 -488
-147 -95 -97 -160 -214 -204 -366 -32 -111 -32 -338 0 -466 12 -49 22 -90 22
-93 0 -2 -29 -4 -64 -4 -49 0 -70 -5 -97 -23 -79 -53 -95 -122 -87 -380 5
-153 12 -180 65 -228 40 -37 84 -49 182 -49 l87 0 12 -42 c7 -24 15 -48 18
-54 3 -8 -22 -14 -78 -19 -46 -3 -162 -15 -258 -26 -96 -10 -183 -19 -192 -19
-17 0 -18 57 -18 1050 l0 1051 -23 23 c-16 15 -41 25 -77 30 -91 11 -341 64
-431 91 -100 29 -151 51 -202 84 -30 19 -35 26 -25 38 36 43 228 109 446 153
800 160 2188 197 3285 89 l209 -21 24 23 c33 31 30 84 -6 110 -29 22 -273 49
-665 75 -279 18 -1219 27 -1507 14z m3022 -1915 l0 -1275 -37 -23 c-82 -51
-282 -112 -495 -150 l-78 -15 0 1289 0 1289 23 4 c12 3 83 17 157 32 145 28
298 71 370 103 25 11 48 20 53 20 4 1 7 -573 7 -1274z m-2632 222 l34 -27
-181 0 c-100 0 -181 3 -181 6 0 3 11 20 24 37 13 18 40 65 61 106 l37 74 86
-85 c48 -46 102 -97 120 -111z m1158 -219 l34 -38 0 -350 c0 -385 -1 -395 -60
-425 -24 -12 -77 -15 -298 -15 -311 0 -306 -2 -375 104 -119 180 -358 176
-477 -8 -64 -98 -55 -96 -370 -96 -223 0 -276 3 -300 15 -59 30 -60 40 -60
424 l0 349 27 32 c14 18 36 36 47 40 12 5 421 8 909 7 l889 -2 34 -37z m-2058
-395 l-3 -188 -85 0 -85 0 -3 188 -2 187 90 0 90 0 -2 -187z m2420 0 l-3 -188
-85 0 -85 0 -3 188 -2 187 90 0 90 0 -2 -187z m-1243 -363 c31 -15 49 -34 69
-69 29 -54 67 -90 130 -124 38 -21 56 -22 284 -25 133 -2 242 -6 242 -10 0
-18 -151 -199 -232 -278 -318 -309 -582 -361 -885 -172 -107 66 -279 229 -373
352 -38 51 -70 95 -70 98 0 4 109 8 243 10 l242 3 55 31 c31 18 69 50 87 75
66 89 77 102 107 115 42 18 53 17 101 -6z"/>
<path d="M2332 2003 c-21 -8 -43 -61 -36 -88 14 -56 163 -125 269 -125 106 0
255 69 269 125 9 35 -18 83 -51 91 -21 6 -42 -1 -88 -27 -52 -29 -69 -34 -130
-34 -61 0 -77 4 -126 33 -54 31 -79 37 -107 25z"/>
</g>
</svg>
