<?xml version="1.0" standalone="no"?>
<!DOCTYPE svg PUBLIC "-//W3C//DTD SVG 20010904//EN"
 "http://www.w3.org/TR/2001/REC-SVG-20010904/DTD/svg10.dtd">
<svg version="1.0" xmlns="http://www.w3.org/2000/svg"
 width="512.000000pt" height="512.000000pt" viewBox="0 0 512.000000 512.000000"
 preserveAspectRatio="xMidYMid meet">

<g transform="translate(0.000000,512.000000) scale(0.100000,-0.100000)"
fill="#EAB308" stroke="none">
<path d="M4562 4947 c-43 -13 -116 -78 -132 -117 l-12 -30 -462 0 -461 0 -202
-135 -202 -134 -25 43 c-122 208 -446 188 -552 -33 l-28 -61 -300 0 -300 0
-273 -272 c-209 -209 -276 -270 -287 -263 -301 217 -578 329 -898 364 -162 18
-215 15 -243 -14 l-25 -24 0 -1191 0 -1191 25 -24 c15 -16 36 -25 55 -25 41 0
80 -39 80 -80 0 -41 -39 -80 -80 -80 -19 0 -40 -9 -55 -25 l-25 -24 0 -391 0
-391 25 -24 c28 -29 81 -32 243 -14 320 35 597 147 898 364 11 7 78 -54 287
-263 l273 -272 301 0 302 0 24 -53 c101 -222 417 -248 548 -47 l31 49 202
-135 201 -134 461 0 462 0 12 -30 c17 -42 90 -104 138 -118 112 -34 233 17
290 123 23 41 23 169 0 211 -42 76 -134 134 -216 134 -83 0 -184 -62 -212
-130 l-12 -30 -437 0 -436 0 -218 145 c-144 96 -217 151 -217 163 0 31 -47
119 -84 156 -20 20 -60 48 -89 63 -44 23 -65 27 -137 27 -70 1 -94 -4 -135
-24 -66 -32 -126 -94 -155 -158 l-24 -52 -265 0 -266 0 -247 247 -247 247 71
75 c38 41 95 110 126 153 l57 78 405 0 405 -1 205 -240 c113 -132 221 -258
241 -280 l36 -39 265 0 266 0 12 -30 c17 -42 90 -104 138 -118 112 -34 233 17
290 123 23 41 23 169 0 211 -42 76 -134 134 -216 134 -83 0 -184 -62 -212
-130 l-12 -30 -232 0 -231 1 -205 240 c-113 132 -221 258 -241 280 l-36 39
-393 0 c-310 0 -391 3 -387 13 51 115 85 195 90 210 6 16 51 17 754 17 l747 0
201 -200 201 -200 226 0 226 0 12 -30 c28 -68 129 -130 212 -130 96 0 204 81
228 171 14 52 8 135 -13 176 -39 74 -134 133 -215 133 -83 0 -184 -62 -212
-130 l-12 -30 -191 0 -191 0 -201 200 -201 200 -761 0 -762 0 8 28 c7 24 18
94 37 250 l5 42 88 0 89 0 12 -30 c28 -68 129 -130 210 -130 81 0 182 62 210
130 l12 30 853 0 854 0 24 -53 c52 -115 158 -182 287 -182 127 0 227 62 287
178 23 44 27 65 27 137 1 100 -23 159 -89 225 -66 66 -125 90 -225 89 -72 0
-93 -4 -137 -27 -69 -36 -120 -88 -150 -154 l-24 -53 -854 0 -853 0 -12 30
c-28 68 -129 130 -210 130 -81 0 -182 -62 -210 -130 l-12 -30 -89 0 c-49 0
-89 3 -89 8 0 16 -21 178 -26 205 l-6 27 713 0 713 0 241 240 241 240 191 0
191 0 12 -30 c28 -68 129 -130 212 -130 96 0 204 81 228 171 14 52 8 135 -13
176 -39 74 -134 133 -215 133 -83 0 -184 -62 -212 -130 l-12 -30 -226 0 -226
0 -241 -240 -241 -240 -697 0 c-486 0 -697 3 -697 11 0 5 -18 58 -40 116 -22
59 -40 108 -40 110 0 2 167 3 372 3 l372 0 281 280 280 280 187 0 187 0 24
-53 c30 -66 81 -118 150 -154 45 -24 64 -28 137 -28 100 1 160 24 225 90 66
66 90 125 89 225 0 72 -4 93 -26 136 -39 75 -70 107 -140 145 -58 31 -70 34
-148 33 -69 0 -94 -5 -135 -24 -66 -32 -126 -93 -155 -158 l-24 -52 -220 0
-220 0 -281 -280 -280 -280 -382 0 -381 0 -26 44 c-41 71 -140 199 -210 273
l-65 69 247 247 247 247 266 0 265 0 24 -52 c29 -64 89 -126 155 -158 42 -20
64 -25 135 -24 94 0 144 18 212 74 37 31 98 138 98 172 0 12 66 62 217 163
l218 145 436 0 437 0 12 -30 c28 -68 129 -130 212 -130 96 0 204 81 228 171
15 53 8 135 -14 177 -53 103 -182 155 -294 119z m133 -172 c16 -15 25 -36 25
-55 0 -19 -9 -40 -25 -55 -15 -16 -36 -25 -55 -25 -19 0 -40 9 -55 25 -16 15
-25 36 -25 55 0 19 9 40 25 55 15 16 36 25 55 25 19 0 40 -9 55 -25z m-1829
-231 c103 -49 125 -173 44 -254 -67 -67 -158 -67 -222 1 -122 128 19 328 178
253z m-2484 -411 c69 -26 172 -99 229 -161 60 -65 153 -203 188 -279 l24 -52
-34 -38 c-31 -34 -45 -61 -62 -114 -5 -17 -97 -30 -314 -45 l-93 -7 0 357 c0
226 4 356 10 356 5 0 29 -7 52 -17z m420 -77 c193 -72 367 -183 558 -353 l44
-40 -29 -15 c-17 -9 -70 -30 -119 -47 l-89 -32 -36 35 c-38 35 -79 59 -121 69
-19 5 -34 23 -59 74 -49 100 -96 176 -163 259 -32 41 -56 74 -53 74 2 0 33
-11 67 -24z m3101 10 c103 -43 128 -177 48 -257 -112 -113 -296 -12 -267 146
18 94 128 150 219 111z m-2340 -612 c62 -89 146 -255 186 -368 34 -96 77 -295
83 -388 l5 -58 -318 0 -317 0 -7 88 c-10 147 -34 333 -55 437 -19 97 -19 100
-1 120 23 24 46 70 55 108 4 16 13 27 24 27 9 0 76 24 147 54 72 29 135 52
140 51 6 -1 32 -33 58 -71z m-548 41 c50 -49 15 -135 -55 -135 -41 0 -80 39
-80 80 0 41 39 80 80 80 19 0 40 -9 55 -25z m3520 0 c16 -15 25 -36 25 -55 0
-19 -9 -40 -25 -55 -15 -16 -36 -25 -55 -25 -19 0 -40 9 -55 25 -16 15 -25 36
-25 55 0 19 9 40 25 55 15 16 36 25 55 25 19 0 40 -9 55 -25z m-3665 -274 c25
-11 57 -21 72 -21 17 0 29 -7 32 -17 18 -58 48 -284 61 -460 l6 -83 -360 0
-361 0 0 319 0 319 108 7 c59 4 154 12 212 19 l105 12 40 -37 c22 -21 60 -47
85 -58z m3833 -515 c103 -43 128 -177 48 -257 -65 -65 -157 -65 -222 0 -124
123 13 325 174 257z m-2248 -91 c50 -49 15 -135 -55 -135 -19 0 -40 9 -55 25
-50 49 -15 135 55 135 19 0 40 -9 55 -25z m-1420 -222 c-11 -147 -34 -319 -60
-441 -32 -152 -40 -177 -52 -175 -44 9 -304 43 -371 49 -81 7 -82 7 -98 41
-18 37 -99 113 -120 113 -12 0 -14 46 -14 250 l0 250 361 0 361 0 -7 -87z
m801 65 c-3 -13 -8 -52 -11 -88 -16 -167 -73 -356 -157 -525 -48 -95 -137
-237 -157 -249 -5 -3 -57 14 -115 39 -59 25 -146 56 -194 71 -48 14 -92 27
-99 29 -9 3 -9 13 -2 37 38 134 81 406 94 611 l7 97 319 0 319 0 -4 -22z
m2699 -723 c50 -49 15 -135 -55 -135 -41 0 -80 39 -80 80 0 41 39 80 80 80 19
0 40 -9 55 -25z m-3885 -80 c128 -16 230 -33 230 -40 0 -2 -18 -46 -40 -97
-109 -249 -254 -429 -413 -508 -44 -22 -86 -40 -93 -40 -12 0 -14 49 -14 285
0 229 3 285 13 285 20 0 95 68 113 101 18 35 27 35 204 14z m537 -114 c65 -21
141 -49 168 -61 l50 -22 -45 -40 c-188 -170 -340 -266 -545 -348 -42 -17 -78
-30 -80 -30 -3 0 20 30 50 68 74 91 164 246 217 370 23 56 48 102 55 102 7 0
65 -18 130 -39z m2628 -366 c50 -49 15 -135 -55 -135 -41 0 -80 39 -80 80 0
41 39 80 80 80 19 0 40 -9 55 -25z m-948 -311 c47 -23 84 -75 90 -127 18 -154
-179 -238 -277 -119 -109 132 33 319 187 246z m1828 -409 c50 -49 15 -135 -55
-135 -41 0 -80 39 -80 80 0 41 39 80 80 80 19 0 40 -9 55 -25z"/>
</g>
</svg>
