<?xml version="1.0" standalone="no"?>
<!DOCTYPE svg PUBLIC "-//W3C//DTD SVG 20010904//EN"
 "http://www.w3.org/TR/2001/REC-SVG-20010904/DTD/svg10.dtd">
<svg version="1.0" xmlns="http://www.w3.org/2000/svg"
 width="512.000000pt" height="512.000000pt" viewBox="0 0 512.000000 512.000000"
 preserveAspectRatio="xMidYMid meet">

<g transform="translate(0.000000,512.000000) scale(0.100000,-0.100000)"
fill="#EAB308" stroke="none">
<path d="M480 4947 c-49 -16 -133 -102 -148 -153 -8 -26 -12 -112 -12 -233 0
-190 0 -192 25 -216 15 -16 36 -25 55 -25 19 0 40 9 55 25 25 24 25 26 25 215
0 253 -12 240 207 240 l158 0 297 -297 c215 -215 298 -304 298 -320 l0 -23
-615 0 -616 0 -26 -26 c-25 -25 -25 -29 -21 -122 8 -149 55 -230 170 -293 l63
-34 203 -3 202 -4 0 -374 0 -375 25 -24 24 -25 336 0 335 0 0 -192 c0 -206 15
-338 49 -448 12 -36 21 -68 21 -72 0 -5 -239 -8 -530 -8 l-531 0 -24 -25 -25
-24 0 -256 0 -255 -56 0 c-31 0 -75 -5 -98 -12 -55 -16 -138 -99 -154 -154
-17 -58 -17 -730 0 -788 16 -55 99 -138 154 -154 24 -7 100 -12 178 -12 l136
0 0 -80 0 -80 -95 0 c-88 0 -98 -2 -120 -25 -33 -32 -33 -78 0 -110 l24 -25
511 0 511 0 24 25 c33 32 33 78 0 110 -22 23 -32 25 -120 25 l-95 0 0 80 0 80
138 0 c173 0 214 12 275 80 24 26 49 66 55 88 17 55 17 729 0 784 -6 22 -31
62 -55 88 -72 81 -67 80 -595 80 l-458 0 0 200 0 200 513 0 512 -1 55 -86 c69
-109 174 -216 577 -586 265 -243 317 -287 343 -287 34 0 10 -21 466 401 176
163 341 321 366 350 107 128 199 298 240 446 l23 83 332 0 333 0 0 -440 0
-440 -336 0 c-235 0 -349 -4 -378 -12 -55 -16 -138 -99 -154 -154 -8 -26 -12
-112 -12 -233 0 -190 0 -192 25 -216 32 -33 78 -33 110 0 25 24 25 26 25 215
0 253 -12 240 207 240 l158 0 298 -298 c213 -213 297 -303 297 -320 l0 -22
-615 0 -616 0 -26 -26 c-25 -25 -25 -29 -21 -122 8 -149 55 -230 170 -293 l63
-34 565 0 565 0 63 34 c114 62 163 145 170 293 4 93 4 97 -21 122 -22 22 -35
26 -82 26 l-55 0 0 296 c0 204 -4 310 -12 338 -23 78 -135 166 -212 166 -15 0
-16 44 -16 495 l0 496 -25 24 -24 25 -376 0 -375 0 0 255 0 256 -25 24 c-32
33 -78 33 -110 0 l-25 -24 0 -249 c0 -331 -21 -453 -108 -627 -93 -187 -91
-185 -745 -788 l-106 -99 -318 295 c-421 389 -450 421 -535 592 -93 187 -108
285 -108 731 l0 353 48 6 c159 20 219 31 326 61 181 52 406 167 558 286 26 20
28 20 50 4 305 -223 596 -333 932 -352 113 -7 114 -7 140 19 33 33 35 79 3
111 -20 20 -37 24 -129 29 -99 6 -296 38 -318 52 -6 4 -10 156 -10 416 l0 409
360 0 360 0 0 -136 c0 -78 5 -154 12 -178 16 -55 99 -138 154 -154 56 -16 412
-16 468 0 55 16 138 99 154 154 17 57 17 730 0 786 -17 59 -88 133 -145 152
-59 20 -412 23 -477 4 -55 -16 -138 -99 -154 -154 -7 -24 -12 -100 -12 -178
l0 -136 -415 0 -416 0 -24 -25 -25 -24 0 -436 c0 -290 -3 -435 -10 -435 -38 0
-266 137 -379 229 -41 33 -73 51 -90 51 -19 0 -55 -22 -114 -70 -248 -199
-534 -309 -852 -327 -155 -9 -155 -9 -155 -188 l0 -135 -280 0 -280 0 0 319 0
320 283 3 282 3 63 34 c114 62 163 145 170 293 4 93 4 97 -21 122 -22 22 -35
26 -82 26 l-55 0 0 296 c0 200 -4 310 -12 336 -6 22 -31 62 -55 88 -72 81 -69
80 -577 79 -291 -1 -453 -5 -476 -12z m935 -172 c24 -24 25 -28 25 -180 0 -85
-1 -155 -3 -155 -1 0 -83 81 -182 180 l-180 180 158 0 c154 0 158 -1 182 -25z
m3200 -80 l25 -24 0 -351 0 -351 -25 -24 c-24 -25 -26 -25 -215 -25 -189 0
-191 0 -215 25 l-25 24 0 351 0 351 25 24 c24 25 26 25 215 25 189 0 191 0
215 -25z m-3019 -727 c-7 -39 -31 -74 -70 -102 -27 -21 -38 -21 -566 -21 -528
0 -539 0 -566 21 -39 28 -63 63 -70 102 l-6 32 642 0 643 0 -7 -32z m-379
-2900 c205 -205 373 -378 373 -385 0 -6 -10 -19 -22 -27 -20 -14 -94 -16 -611
-16 l-588 0 -24 25 -25 24 0 351 0 351 25 24 24 25 238 0 238 0 372 -372z
m358 347 l25 -24 0 -236 c0 -129 -1 -235 -3 -235 -1 0 -119 117 -262 260
l-260 260 238 0 238 0 24 -25z m3040 -160 c24 -24 25 -28 25 -180 0 -85 -1
-155 -3 -155 -1 0 -83 81 -182 180 l-180 180 158 0 c154 0 158 -1 182 -25z
m-3495 -855 l0 -80 -160 0 -160 0 0 80 0 80 160 0 160 0 0 -80z m3676 48 c-7
-39 -31 -74 -70 -102 -27 -21 -38 -21 -566 -21 -528 0 -539 0 -566 21 -39 28
-63 63 -70 102 l-6 32 642 0 643 0 -7 -32z"/>
<path d="M4345 4215 c-16 -15 -25 -36 -25 -55 0 -19 9 -40 25 -55 15 -16 36
-25 55 -25 19 0 40 9 55 25 16 15 25 36 25 55 0 19 -9 40 -25 55 -15 16 -36
25 -55 25 -19 0 -40 -9 -55 -25z"/>
<path d="M2620 3353 c-8 -3 -47 -25 -85 -49 -153 -94 -373 -183 -542 -219
-106 -22 -128 -32 -142 -61 -17 -38 -13 -63 14 -89 32 -33 65 -32 206 4 186
47 365 120 511 208 l57 34 82 -47 c147 -83 306 -148 464 -189 l90 -23 0 -234
c0 -192 -3 -244 -18 -298 -23 -83 -76 -191 -124 -255 -38 -49 -478 -465 -492
-465 -4 0 -111 97 -239 215 -149 139 -246 237 -274 277 -84 124 -128 272 -128
429 0 71 -3 83 -25 104 -15 16 -36 25 -55 25 -19 0 -40 -9 -55 -25 -23 -22
-25 -32 -25 -107 0 -206 63 -396 183 -552 29 -38 170 -177 317 -312 244 -225
268 -244 301 -244 34 0 57 18 303 247 147 136 289 276 316 312 86 114 147 260
170 401 14 90 13 552 -1 583 -14 30 -39 43 -121 57 -156 29 -384 120 -558 223
-95 57 -102 60 -130 50z"/>
<path d="M2924 2794 c-7 -3 -92 -102 -190 -220 l-179 -214 -95 94 c-52 52
-105 97 -118 101 -54 16 -112 -42 -99 -97 4 -13 69 -85 145 -161 118 -117 143
-137 170 -137 18 0 41 9 55 23 14 12 115 131 226 265 219 264 226 278 176 327
-22 23 -61 31 -91 19z"/>
</g>
</svg>
