<?xml version="1.0" standalone="no"?>
<!DOCTYPE svg PUBLIC "-//W3C//DTD SVG 20010904//EN"
 "http://www.w3.org/TR/2001/REC-SVG-20010904/DTD/svg10.dtd">
<svg version="1.0" xmlns="http://www.w3.org/2000/svg"
 width="512.000000pt" height="512.000000pt" viewBox="0 0 512.000000 512.000000"
 preserveAspectRatio="xMidYMid meet">

<g transform="translate(0.000000,512.000000) scale(0.100000,-0.100000)"
fill="#EAB308" stroke="none">
<path d="M2397 5105 c-338 -64 -617 -324 -708 -660 -32 -115 -32 -335 0 -450
24 -90 75 -203 120 -269 l31 -44 -188 -181 -188 -180 -50 35 c-95 69 -256 134
-366 150 l-48 6 0 244 c0 197 3 244 13 244 34 0 138 65 185 113 199 211 142
537 -116 664 -73 37 -80 38 -182 38 -102 0 -109 -1 -182 -38 -258 -127 -315
-453 -116 -664 47 -48 151 -113 185 -113 10 0 13 -47 13 -245 l0 -245 -23 0
c-45 0 -182 -40 -254 -74 -252 -120 -432 -340 -500 -613 -26 -103 -23 -323 6
-428 57 -213 195 -404 378 -525 89 -59 189 -100 226 -93 37 7 77 57 77 97 0
48 -23 71 -119 121 -49 25 -106 61 -127 79 l-38 33 13 43 c19 63 58 96 139
114 66 15 67 15 102 -9 136 -94 293 -97 425 -10 l51 34 67 -15 c79 -18 119
-51 138 -114 l13 -43 -39 -33 c-22 -18 -76 -53 -119 -76 -62 -33 -82 -50 -93
-76 -28 -66 21 -137 92 -135 18 1 65 18 104 38 40 21 73 36 75 34 5 -5 236
-291 248 -306 6 -8 -9 -35 -49 -85 -74 -93 -134 -208 -169 -323 -25 -81 -28
-106 -28 -247 l-1 -158 -283 0 c-260 0 -283 1 -289 18 -70 208 -262 329 -466
294 -183 -32 -316 -165 -348 -350 -30 -168 66 -354 222 -432 234 -119 509 -2
593 253 5 16 29 17 323 17 l318 0 34 -65 c83 -161 242 -311 408 -387 76 -34
112 -38 148 -14 35 23 49 57 41 99 -8 43 -21 54 -123 106 -44 23 -98 57 -119
75 -34 29 -36 35 -30 68 13 70 62 108 164 128 44 8 51 6 99 -26 129 -85 290
-81 423 11 34 24 36 24 98 10 97 -23 129 -52 146 -131 6 -29 3 -34 -47 -71
-29 -23 -81 -55 -115 -72 -71 -36 -97 -74 -88 -126 12 -61 73 -93 136 -71 173
59 398 282 471 464 12 31 24 59 26 61 1 2 157 -36 346 -84 l344 -88 11 -69
c13 -89 54 -169 117 -233 240 -239 645 -109 706 228 32 171 -64 359 -223 439
-189 95 -402 40 -538 -140 l-25 -32 -310 80 c-170 45 -326 85 -345 90 l-35 9
0 108 c-1 108 -21 228 -51 300 -9 19 -14 36 -12 38 6 5 326 174 335 177 5 2
33 -25 60 -60 62 -77 162 -166 237 -211 81 -49 166 -80 199 -74 37 7 77 57 77
97 0 47 -23 72 -100 111 -76 37 -148 84 -170 109 -11 14 -11 24 -1 58 19 61
59 94 137 112 l66 15 53 -35 c59 -40 138 -64 206 -64 62 0 165 33 211 69 36
27 41 28 90 19 81 -14 120 -38 146 -88 12 -24 22 -52 22 -61 0 -23 -59 -69
-157 -123 -65 -36 -80 -49 -92 -80 -13 -33 -12 -41 3 -72 40 -84 130 -73 281
34 195 139 306 300 371 542 25 90 25 309 1 400 -26 94 -63 185 -108 262 -73
125 -243 283 -371 344 -43 20 -44 8 13 182 l38 117 63 7 c361 38 513 471 253
717 -279 264 -731 47 -702 -336 8 -106 55 -202 136 -275 l59 -53 -45 -138 -44
-138 -102 7 c-154 10 -332 -23 -450 -83 -27 -13 -50 -23 -51 -21 -19 27 -592
826 -598 835 -6 8 10 35 49 81 109 130 181 281 206 429 l13 78 115 3 114 3 24
-61 c52 -135 204 -247 349 -258 200 -14 372 104 437 298 12 37 16 75 13 139
-3 77 -7 96 -41 163 -144 292 -548 316 -722 43 -18 -27 -38 -67 -44 -87 l-13
-38 -116 0 -117 0 -22 91 c-75 314 -334 577 -648 659 -106 28 -283 35 -388 15z
m301 -200 c46 -9 116 -34 172 -62 80 -39 109 -59 181 -132 71 -72 94 -103 132
-182 59 -120 82 -229 74 -349 -6 -88 -32 -192 -61 -249 l-17 -32 -40 45 c-44
50 -102 86 -169 105 l-45 12 0 177 0 177 -31 65 c-137 287 -531 287 -668 0
l-31 -65 0 -177 0 -177 -45 -12 c-67 -19 -125 -55 -169 -105 l-40 -45 -14 28
c-30 58 -58 171 -64 253 -8 118 15 229 74 350 38 79 59 108 132 181 73 73 102
94 181 132 152 74 291 93 448 62z m-1676 -320 c50 -35 98 -120 98 -173 0 -126
-96 -224 -220 -224 -124 0 -220 98 -220 223 0 49 42 132 82 162 51 39 77 47
150 44 56 -2 75 -8 110 -32z m1638 -123 c60 -48 70 -80 70 -223 0 -112 -3
-131 -23 -169 -27 -51 -90 -90 -147 -90 -57 0 -120 39 -147 90 -20 38 -23 57
-23 167 0 83 5 135 14 157 15 36 71 86 108 98 43 13 111 -1 148 -30z m1543
-34 c127 -70 145 -258 34 -353 -86 -74 -205 -73 -287 1 -51 47 -74 106 -68
183 11 159 179 247 321 169z m-1848 -583 c123 -85 284 -85 410 0 l50 34 67
-15 c81 -19 120 -51 139 -114 l13 -43 -36 -31 c-20 -17 -73 -51 -119 -77 -70
-39 -86 -52 -98 -83 -13 -33 -12 -41 3 -72 20 -43 70 -67 113 -55 16 5 48 18
72 31 36 18 46 19 56 8 16 -18 595 -825 595 -830 0 -2 -23 -28 -51 -58 -105
-111 -179 -247 -221 -401 -32 -120 -32 -317 1 -442 12 -49 21 -91 18 -93 -3
-3 -80 -45 -172 -93 l-167 -88 -101 102 c-65 65 -128 117 -174 144 -267 157
-570 171 -853 40 -50 -23 -92 -40 -94 -38 -19 18 -256 315 -256 319 0 4 25 38
55 76 67 84 140 229 163 324 l17 70 108 0 c94 0 108 -2 113 -17 67 -203 267
-329 470 -295 335 56 468 467 229 707 -224 223 -598 128 -699 -177 -5 -16 -19
-18 -105 -18 l-99 0 -12 83 c-20 137 -69 265 -148 385 l-36 54 134 129 c74 71
158 150 187 174 l51 46 65 -46 c87 -61 193 -109 236 -108 70 2 116 93 76 150
-9 13 -56 43 -104 68 -49 25 -106 61 -127 79 l-38 33 13 43 c22 74 64 101 200
129 3 1 28 -15 56 -34z m2438 -201 c172 -87 160 -332 -19 -400 -172 -66 -346
108 -280 280 45 119 188 176 299 120z m-3755 -339 c46 -9 115 -34 172 -62 79
-38 109 -60 181 -132 72 -72 94 -102 132 -181 93 -191 101 -403 21 -579 l-24
-54 -40 46 c-46 51 -105 88 -170 106 l-45 12 0 177 0 177 -31 65 c-137 287
-531 287 -668 0 l-31 -65 0 -177 0 -177 -45 -12 c-67 -19 -125 -55 -169 -105
l-40 -45 -14 28 c-30 58 -58 171 -64 253 -8 118 15 229 73 349 38 78 60 108
132 181 73 74 102 94 182 133 151 74 291 93 448 62z m-88 -415 c41 -11 94 -61
109 -103 6 -16 11 -84 11 -151 0 -109 -3 -128 -23 -166 -27 -51 -90 -90 -147
-90 -57 0 -120 39 -147 90 -20 38 -23 57 -23 167 0 137 9 171 57 216 46 43 99
55 163 37z m1545 -129 c172 -78 178 -309 10 -399 -40 -22 -150 -22 -190 0
-134 72 -165 243 -62 348 42 43 101 70 157 70 25 0 63 -9 85 -19z m1863 -157
c44 -9 117 -35 172 -61 79 -38 108 -59 181 -132 73 -73 94 -102 132 -181 59
-122 82 -232 74 -350 -6 -88 -32 -192 -61 -249 l-17 -32 -41 46 c-41 47 -101
83 -173 105 l-40 12 0 176 0 177 -31 65 c-74 155 -233 239 -396 210 -124 -23
-217 -95 -272 -210 l-31 -65 0 -177 0 -177 -45 -12 c-67 -19 -125 -55 -169
-105 l-40 -45 -14 28 c-30 58 -58 171 -64 253 -8 118 15 229 74 350 38 79 59
108 132 181 73 73 102 94 181 132 153 74 292 93 448 61z m-38 -442 c60 -48 70
-80 70 -223 0 -112 -3 -131 -23 -169 -27 -51 -90 -90 -147 -90 -57 0 -120 39
-147 90 -20 38 -23 57 -23 167 0 83 5 135 14 157 15 36 71 86 108 98 43 13
111 -1 148 -30z m-1834 -590 c115 -36 203 -90 294 -182 94 -94 142 -173 181
-300 42 -137 29 -331 -32 -469 l-20 -45 -40 46 c-43 51 -101 88 -169 107 l-45
12 0 177 0 177 -31 65 c-123 259 -469 293 -634 62 -61 -84 -72 -138 -68 -323
l3 -158 -45 -11 c-62 -16 -119 -50 -168 -104 l-42 -45 -20 39 c-11 22 -29 77
-40 122 -91 379 148 755 535 844 81 19 260 11 341 -14z m-146 -402 c41 -11 94
-61 109 -103 14 -37 14 -257 0 -294 -23 -63 -95 -113 -161 -113 -53 0 -115 37
-143 84 -23 40 -25 52 -25 176 0 124 2 136 25 175 16 28 39 50 67 64 48 23 76
26 128 11z m-1807 -343 c119 -70 141 -241 44 -339 -88 -87 -212 -90 -302 -7
-44 41 -75 106 -75 159 0 81 68 177 146 206 56 21 132 13 187 -19z m3802 -206
c86 -39 129 -106 129 -201 0 -95 -43 -162 -129 -201 -137 -63 -305 48 -305
201 0 153 168 264 305 201z"/>
<path d="M2530 3513 c-81 -31 -89 -148 -13 -182 67 -31 143 19 143 93 0 53
-81 108 -130 89z"/>
<path d="M865 1911 c-32 -13 -55 -46 -62 -84 -5 -32 -1 -41 30 -72 47 -47 86
-48 133 -1 46 46 46 86 0 132 -34 34 -61 41 -101 25z"/>
<path d="M4190 1213 c-29 -11 -59 -46 -65 -75 -13 -57 35 -118 94 -118 58 0
109 63 96 119 -11 52 -79 92 -125 74z"/>
<path d="M2241 186 c-72 -40 -64 -150 13 -176 43 -14 77 -5 107 26 73 78 -27
202 -120 150z"/>
</g>
</svg>
