<?xml version="1.0" standalone="no"?>
<!DOCTYPE svg PUBLIC "-//W3C//DTD SVG 20010904//EN"
 "http://www.w3.org/TR/2001/REC-SVG-20010904/DTD/svg10.dtd">
<svg version="1.0" xmlns="http://www.w3.org/2000/svg"
 width="200.000000pt" height="200.000000pt" viewBox="0 0 200.000000 200.000000"
 preserveAspectRatio="xMidYMid meet">

<g transform="translate(0.000000,200.000000) scale(0.100000,-0.100000)"
fill="#EAB308" stroke="none">
<path d="M771 1985 c-259 -57 -452 -200 -552 -410 -48 -100 -62 -189 -56 -344
7 -177 36 -282 118 -439 34 -65 75 -142 91 -174 26 -49 30 -66 30 -141 0 -87
-7 -109 -57 -183 -59 -88 -13 -138 209 -229 123 -49 373 -79 486 -58 44 8 46
11 81 81 71 143 113 168 294 176 72 3 140 6 153 6 13 0 34 11 47 25 21 20 25
34 25 86 0 49 6 72 26 106 27 47 23 66 -18 79 -18 5 -17 8 11 25 27 16 31 25
32 61 0 24 8 70 17 103 16 55 20 60 51 66 57 12 81 30 81 59 0 15 -7 33 -15
40 -26 21 -82 131 -98 190 -9 30 -18 106 -21 168 -7 133 -25 210 -73 312 -67
140 -263 305 -428 360 -151 50 -305 62 -434 35z m383 -150 c138 -49 311 -187
364 -292 35 -68 65 -191 60 -244 -12 -117 -141 -198 -318 -200 -65 0 -65 0
-95 -42 -38 -53 -102 -85 -195 -99 -86 -13 -81 -4 -111 -195 -18 -117 -25
-141 -46 -160 -49 -46 -112 -42 -143 10 -11 17 -18 39 -15 47 20 69 20 68 -32
75 -121 15 -185 56 -198 128 -5 27 -13 39 -30 43 -13 3 -30 13 -38 22 -41 46
-85 307 -72 424 25 234 205 430 457 498 110 30 303 23 412 -15z"/>
<path d="M1053 1720 c-36 -22 -54 -50 -62 -98 -6 -32 -12 -36 -136 -92 l-130
-58 -20 24 c-39 47 -154 71 -208 43 -68 -35 -110 -101 -110 -174 0 -73 42
-139 110 -174 38 -19 115 -13 169 14 l49 25 85 -49 c65 -37 86 -54 88 -72 8
-54 56 -74 100 -43 52 36 12 112 -53 101 -30 -5 -48 2 -118 42 -51 30 -81 53
-79 62 2 8 9 35 15 62 10 38 16 47 34 47 12 0 33 -11 47 -25 14 -14 37 -25 51
-25 55 0 87 77 47 113 -28 26 -77 22 -100 -8 -24 -30 -77 -35 -84 -7 -4 14 19
28 123 74 l128 57 35 -35 c28 -28 41 -34 76 -34 52 0 95 25 115 66 30 63 14
122 -44 161 -42 28 -86 29 -128 3z"/>
</g>
</svg>
