<?xml version="1.0" standalone="no"?>
<!DOCTYPE svg PUBLIC "-//W3C//DTD SVG 20010904//EN"
 "http://www.w3.org/TR/2001/REC-SVG-20010904/DTD/svg10.dtd">
<svg version="1.0" xmlns="http://www.w3.org/2000/svg"
 width="200.000000pt" height="200.000000pt" viewBox="0 0 200.000000 200.000000"
 preserveAspectRatio="xMidYMid meet">

<g transform="translate(0.000000,200.000000) scale(0.100000,-0.100000)"
fill="#EAB308" stroke="none">
<path d="M155 1991 c-11 -5 -29 -19 -40 -31 -20 -22 -20 -38 -23 -880 -3 -948
-4 -921 58 -952 31 -16 73 -18 403 -18 l369 0 -30 38 c-60 76 -122 225 -122
293 0 72 9 69 -206 69 l-194 0 0 35 0 35 199 0 198 0 7 51 c4 28 16 73 26 100
11 27 20 52 20 54 0 3 -101 5 -225 5 l-225 0 0 35 0 35 250 0 c150 0 250 4
250 9 0 18 114 133 165 167 l50 34 -358 0 -357 0 0 35 0 36 573 -3 c515 -3
576 -5 616 -21 24 -9 45 -17 47 -17 2 0 4 96 4 213 l0 212 -231 238 -231 237
-486 -1 c-268 0 -496 -4 -507 -8z m985 -236 l0 -215 215 0 215 0 0 -35 0 -35
-250 0 -250 0 0 250 0 250 35 0 35 0 0 -215z"/>
<path d="M1242 926 c-79 -30 -132 -67 -183 -127 -186 -222 -114 -548 149 -672
57 -27 81 -33 159 -35 101 -4 162 10 241 55 216 126 277 429 124 630 -43 57
-63 75 -121 110 -111 67 -252 82 -369 39z m308 -253 l158 -88 -111 -53 c-62
-30 -135 -64 -162 -76 l-50 -23 -160 77 -159 76 154 86 c85 47 159 86 164 87
5 1 80 -38 166 -86z m-136 -302 c17 7 88 41 158 76 123 61 128 62 138 43 10
-19 5 -24 -62 -54 -40 -19 -115 -54 -167 -79 l-94 -44 -156 73 c-86 41 -160
75 -165 77 -5 2 -6 12 -2 24 6 20 14 18 163 -53 147 -71 158 -74 187 -63z
m-179 -41 l152 -71 152 71 c83 38 155 70 160 70 18 0 20 -30 3 -39 -46 -25
-306 -141 -314 -141 -10 0 -319 137 -327 145 -5 6 7 35 15 35 4 0 75 -32 159
-70z"/>
</g>
</svg>
