<?xml version="1.0" standalone="no"?>
<!DOCTYPE svg PUBLIC "-//W3C//DTD SVG 20010904//EN"
 "http://www.w3.org/TR/2001/REC-SVG-20010904/DTD/svg10.dtd">
<svg version="1.0" xmlns="http://www.w3.org/2000/svg"
 width="200.000000pt" height="200.000000pt" viewBox="0 0 200.000000 200.000000"
 preserveAspectRatio="xMidYMid meet">

<g transform="translate(0.000000,200.000000) scale(0.100000,-0.100000)"
fill="#EAB308" stroke="none">
<path d="M295 1990 c-123 -13 -209 -69 -254 -165 -38 -80 -43 -198 -39 -902 3
-606 5 -662 22 -707 38 -105 92 -158 197 -193 50 -17 107 -18 779 -18 672 0
729 1 779 18 107 36 162 91 198 198 17 50 18 107 18 779 0 672 -1 729 -18 779
-35 105 -88 158 -193 197 -45 17 -99 19 -734 20 -377 1 -716 -2 -755 -6z m510
-434 c28 -12 42 -30 75 -95 l40 -81 273 0 272 0 37 -25 c67 -45 69 -63 66
-467 -3 -342 -4 -358 -24 -384 -11 -15 -33 -37 -48 -48 -27 -21 -38 -21 -496
-21 -458 0 -469 0 -496 21 -15 11 -37 33 -48 48 -20 27 -21 41 -24 479 -2 249
0 466 3 484 7 40 48 90 78 96 58 11 259 6 292 -7z"/>
<path d="M527 1464 c-4 -4 -7 -209 -7 -455 l0 -448 22 -15 c20 -14 80 -16 458
-16 378 0 438 2 458 16 l22 15 0 343 c0 318 -1 344 -18 359 -16 15 -56 17
-308 19 l-289 3 -45 90 -45 90 -121 3 c-66 1 -123 -1 -127 -4z m566 -357 c18
-8 47 -27 66 -43 19 -16 43 -27 53 -26 17 3 19 -3 16 -65 l-3 -68 -67 -3 c-72
-3 -83 5 -53 38 50 55 -89 112 -160 66 -14 -9 -31 -28 -37 -42 -10 -21 -18
-24 -60 -24 -26 0 -48 4 -48 9 0 47 63 123 125 152 47 22 123 24 168 6z m-150
-214 c4 -3 -2 -16 -13 -28 -25 -27 -18 -50 21 -70 59 -31 158 -6 174 44 5 18
15 21 56 21 54 0 57 -5 33 -53 -65 -128 -230 -164 -339 -74 -21 17 -48 31 -59
32 -18 0 -21 7 -24 47 -5 75 7 88 82 88 34 0 66 -3 69 -7z"/>
</g>
</svg>
