<?xml version="1.0" standalone="no"?>
<!DOCTYPE svg PUBLIC "-//W3C//DTD SVG 20010904//EN"
 "http://www.w3.org/TR/2001/REC-SVG-20010904/DTD/svg10.dtd">
<svg version="1.0" xmlns="http://www.w3.org/2000/svg"
 width="200.000000pt" height="200.000000pt" viewBox="0 0 200.000000 200.000000"
 preserveAspectRatio="xMidYMid meet">

<g transform="translate(0.000000,200.000000) scale(0.100000,-0.100000)"
fill="#EAB308" stroke="none">
<path d="M988 1667 c-128 -84 -298 -197 -378 -250 l-145 -97 -175 0 c-124 0
-180 -4 -188 -12 -9 -9 -12 -94 -12 -319 0 -266 2 -310 16 -323 13 -13 45 -16
190 -16 l175 0 374 -241 c399 -257 414 -264 442 -209 17 33 19 1533 2 1577
-11 31 -26 43 -51 43 -9 0 -121 -69 -250 -153z m148 -1255 c-3 -2 -145 86
-316 197 l-312 201 -139 0 -139 0 0 190 0 190 133 0 132 0 320 213 320 214 3
-600 c1 -330 0 -602 -2 -605z"/>
<path d="M1613 1547 c-57 -35 -111 -72 -122 -81 -20 -18 -20 -19 7 -72 14 -30
31 -54 37 -54 17 0 238 138 247 154 10 18 -36 116 -55 116 -6 0 -58 -29 -114
-63z"/>
<path d="M1592 1058 c-12 -12 -16 -95 -6 -122 5 -14 28 -16 153 -16 101 0 151
4 159 12 15 15 16 92 2 119 -10 17 -23 19 -153 19 -98 0 -147 -4 -155 -12z"/>
<path d="M1510 621 c-12 -27 -20 -56 -17 -64 7 -20 236 -157 251 -151 18 7 58
94 51 113 -6 17 -224 151 -248 151 -7 0 -24 -22 -37 -49z"/>
</g>
</svg>
