<?xml version="1.0" standalone="no"?>
<!DOCTYPE svg PUBLIC "-//W3C//DTD SVG 20010904//EN"
 "http://www.w3.org/TR/2001/REC-SVG-20010904/DTD/svg10.dtd">
<svg version="1.0" xmlns="http://www.w3.org/2000/svg"
 width="512.000000pt" height="512.000000pt" viewBox="0 0 512.000000 512.000000"
 preserveAspectRatio="xMidYMid meet">

<g transform="translate(0.000000,512.000000) scale(0.100000,-0.100000)"
fill="#EAB308" stroke="none">
<path d="M1796 5019 l-26 -20 0 -999 0 -999 26 -20 c26 -21 34 -21 720 -21
487 0 700 3 717 11 14 6 30 22 36 36 8 17 11 262 11 836 l0 811 -193 193 -193
193 -535 0 c-527 0 -537 0 -563 -21z m984 -274 c0 -144 8 -176 47 -194 14 -6
81 -11 158 -11 l135 0 0 -710 0 -710 -595 0 -595 0 0 880 0 880 425 0 425 0 0
-135z m195 -15 l29 -30 -32 0 c-29 0 -32 3 -32 30 0 17 1 30 3 30 2 0 16 -13
32 -30z"/>
<path d="M2102 4677 c-45 -47 -17 -120 51 -132 18 -4 135 -5 261 -3 l228 3 24
28 c29 34 31 66 3 101 l-20 26 -263 0 c-261 0 -263 0 -284 -23z"/>
<path d="M2105 4355 c-30 -29 -32 -74 -6 -106 l19 -24 392 -3 c345 -2 395 -1
417 13 32 21 45 58 32 92 -20 53 -14 52 -437 53 l-393 0 -24 -25z"/>
<path d="M2105 4035 c-16 -15 -25 -36 -25 -55 0 -19 9 -40 25 -55 l24 -25 394
0 394 0 23 25 c33 35 31 81 -4 112 l-27 23 -390 0 -390 0 -24 -25z"/>
<path d="M2124 3726 c-50 -22 -61 -87 -21 -124 23 -22 27 -22 416 -22 232 0
400 4 410 10 10 5 24 23 31 39 15 37 -2 79 -40 98 -37 19 -752 18 -796 -1z"/>
<path d="M2102 3387 c-22 -23 -28 -60 -16 -92 17 -42 44 -45 436 -45 403 0
411 1 436 54 16 32 2 80 -29 96 -10 6 -179 10 -412 10 l-394 0 -21 -23z"/>
<path d="M3536 4767 c-58 -33 -94 -84 -106 -149 -7 -37 -10 -378 -8 -999 l3
-944 28 -47 c18 -31 44 -57 75 -75 l47 -28 625 -3 c431 -2 641 0 676 8 33 7
66 23 92 46 77 66 73 1 70 1094 -3 967 -3 975 -24 1015 -11 22 -40 54 -63 70
l-43 30 -666 2 -667 3 -39 -23z m1332 -149 c9 -9 12 -235 12 -957 0 -865 -1
-946 -17 -963 -15 -17 -48 -18 -628 -18 -512 0 -614 2 -631 14 -19 14 -19 36
-19 966 0 834 2 952 15 960 24 15 1253 13 1268 -2z"/>
<path d="M4160 4491 c-69 -21 -131 -74 -166 -141 -28 -52 -26 -171 4 -227 l22
-42 -35 -21 c-83 -51 -161 -169 -184 -278 -16 -79 -14 -108 13 -139 l24 -28
354 -3 c382 -4 429 -1 459 29 39 39 15 193 -45 287 -28 44 -68 87 -119 127
l-38 30 20 45 c47 103 15 243 -69 310 -67 53 -165 74 -240 51z m141 -180 c62
-62 20 -171 -66 -171 -47 0 -71 13 -90 50 -54 104 74 203 156 121z m38 -357
c71 -30 137 -98 156 -161 l6 -23 -265 0 c-291 0 -283 -2 -252 59 18 35 98 108
134 123 73 29 153 30 221 2z"/>
<path d="M3772 3337 c-22 -23 -28 -60 -16 -92 17 -43 42 -45 476 -45 446 0
451 1 476 54 16 32 2 80 -29 96 -10 6 -193 10 -452 10 l-434 0 -21 -23z"/>
<path d="M3775 3045 c-16 -15 -25 -36 -25 -55 0 -19 9 -40 25 -55 l24 -25 431
0 432 0 29 29 c37 37 37 65 0 102 l-29 29 -432 0 -431 0 -24 -25z"/>
<path d="M715 4636 c-302 -70 -532 -290 -612 -586 -24 -89 -24 -299 1 -390 69
-257 269 -472 516 -554 219 -73 456 -49 654 66 92 53 230 191 284 283 136 232
146 503 27 750 -96 199 -269 346 -490 415 -90 28 -291 37 -380 16z m75 -271
l0 -55 -39 0 c-22 0 -43 4 -46 10 -5 8 70 100 81 100 2 0 4 -25 4 -55z m219 9
c22 -26 38 -50 35 -55 -3 -5 -25 -9 -50 -9 l-44 0 0 55 c0 30 4 55 9 55 5 0
28 -21 50 -46z m-469 6 c-6 -11 -15 -20 -20 -20 -16 0 -11 18 8 29 24 14 24
14 12 -9z m700 -10 c0 -18 -19 -11 -30 11 -11 19 -10 20 9 9 12 -6 21 -15 21
-20z m-827 -136 l34 -16 -22 -67 c-12 -36 -28 -99 -35 -138 l-12 -73 -64 0
c-60 0 -64 1 -64 23 0 39 55 180 90 235 19 28 36 52 37 52 1 0 18 -7 36 -16z
m996 -39 c41 -68 78 -158 87 -213 l7 -42 -65 0 -65 0 -17 86 c-9 47 -25 108
-36 136 -11 29 -19 53 -17 54 7 5 63 33 67 34 3 0 21 -25 39 -55z m-691 -42
l72 -6 0 -103 0 -104 -125 0 c-69 0 -125 1 -125 3 0 23 26 133 42 175 17 47
23 53 42 48 11 -3 54 -9 94 -13z m455 -60 c13 -43 27 -95 30 -115 l6 -38 -130
0 -130 0 3 103 3 102 74 7 c41 4 76 10 79 13 3 3 13 5 23 5 14 0 24 -19 42
-77z m-785 -382 c10 -60 37 -156 56 -201 5 -12 -3 -19 -31 -29 -35 -13 -38
-12 -56 10 -45 56 -107 209 -107 266 0 22 4 23 64 23 l63 0 11 -69z m402 -35
l0 -105 -57 -7 c-32 -4 -76 -8 -97 -8 l-40 -1 -22 70 c-12 39 -25 89 -29 113
l-7 42 126 0 126 0 0 -104z m420 100 c0 -20 -33 -152 -46 -185 -18 -46 -16
-46 -131 -29 l-83 11 0 97 c0 53 3 100 7 103 7 8 253 10 253 3z m290 -13 c-1
-58 -63 -213 -109 -272 -17 -23 -21 -24 -52 -11 -19 7 -35 14 -36 15 -1 0 8
32 21 71 13 38 29 102 36 142 l12 72 64 0 c54 0 64 -3 64 -17z m-710 -408 c0
-30 -2 -55 -4 -55 -7 0 -86 84 -86 92 0 4 12 9 28 11 64 10 62 11 62 -48z
m260 39 c2 -3 -19 -28 -48 -57 l-52 -52 0 64 0 63 48 -7 c26 -4 49 -9 52 -11z
m-510 -59 c7 -8 8 -15 2 -15 -5 0 -15 7 -22 15 -7 8 -8 15 -2 15 5 0 15 -7 22
-15z m690 0 c-7 -8 -17 -15 -22 -15 -6 0 -5 7 2 15 7 8 17 15 22 15 6 0 5 -7
-2 -15z"/>
<path d="M2495 2920 c-45 -18 -50 -36 -55 -199 l-5 -156 -23 36 c-29 48 -71
66 -112 49 -34 -14 -50 -37 -50 -72 0 -25 196 -322 227 -345 27 -21 77 -16
100 10 11 12 64 86 117 163 106 157 115 186 71 229 -42 43 -86 31 -135 -37
l-30 -41 0 161 c0 149 -2 164 -20 182 -11 11 -24 20 -29 20 -5 0 -15 2 -23 4
-7 3 -22 1 -33 -4z"/>
<path d="M462 2757 l-22 -23 0 -766 c0 -765 0 -765 21 -784 19 -17 43 -19 247
-24 l226 -5 -43 -28 c-51 -34 -67 -69 -50 -109 14 -33 37 -48 74 -48 26 0 303
178 339 219 27 30 25 77 -5 105 -52 50 -313 216 -339 216 -51 0 -94 -66 -70
-109 6 -12 29 -35 52 -51 l41 -30 -166 0 -167 0 0 689 c0 710 -2 740 -40 761
-32 17 -75 11 -98 -13z"/>
<path d="M4475 2345 l-25 -24 0 -501 0 -500 -167 1 c-161 0 -167 1 -143 17 75
51 91 102 45 147 -42 43 -66 34 -242 -86 -233 -158 -233 -163 2 -321 177 -120
207 -130 244 -82 39 50 28 82 -49 143 l-25 20 217 1 c119 0 224 3 233 6 44 17
45 33 45 598 0 371 -3 543 -11 559 -22 49 -86 61 -124 22z"/>
<path d="M2293 2170 c-419 -35 -714 -136 -817 -278 l-31 -44 -3 -696 c-2 -454
1 -709 7 -732 79 -269 900 -421 1587 -295 333 62 533 174 564 318 8 37 10 246
8 717 -3 661 -3 665 -25 706 -75 140 -313 240 -687 289 -144 19 -464 27 -603
15z m592 -175 c274 -36 511 -120 550 -195 17 -33 7 -51 -49 -89 -221 -153
-845 -216 -1326 -135 -190 32 -351 91 -423 154 -44 38 -46 58 -9 92 90 85 372
165 664 188 150 12 445 4 593 -15z m-1213 -474 c411 -187 1295 -187 1697 -1
35 17 67 30 72 30 15 0 11 -411 -4 -440 -25 -50 -155 -112 -324 -156 -484
-123 -1268 -57 -1476 125 l-37 33 0 219 c0 120 2 219 4 219 2 0 32 -13 68 -29z
m24 -660 c412 -177 1282 -172 1673 9 35 17 67 30 73 30 5 0 8 -87 6 -219 -3
-252 2 -238 -106 -294 -195 -102 -551 -157 -922 -143 -360 13 -664 84 -779
182 l-41 36 0 220 c0 172 3 219 13 215 6 -3 44 -19 83 -36z"/>
<path d="M2365 1185 c-32 -31 -32 -66 -1 -102 23 -27 29 -28 126 -31 120 -5
164 2 191 29 27 27 25 80 -4 107 -22 20 -34 22 -156 22 -127 0 -133 -1 -156
-25z"/>
<path d="M2361 534 c-27 -35 -26 -67 3 -101 22 -26 29 -27 125 -31 121 -5 165
2 191 30 27 30 26 79 -3 106 -22 20 -33 22 -159 22 -136 0 -137 0 -157 -26z"/>
</g>
</svg>
